<svg fill="none" height="512" viewBox="0 0 24 24" width="512" xmlns="http://www.w3.org/2000/svg"><g fill="rgb(0,0,0)"><path d="m8 11c1.65685 0 3-1.34314 3-3v-3c0-1.65685-1.34314-3-3-3h-3c-1.65685 0-3 1.34315-3 3v3c0 1.65685 1.34315 3 3 3z"/><path d="m8 22c1.65685 0 3-1.3431 3-3v-3c0-1.6569-1.34314-3-3-3h-3c-1.65685 0-3 1.3431-3 3v3c0 1.6569 1.34315 3 3 3z"/><path d="m19 11c1.6569 0 3-1.34314 3-3v-3c0-1.65685-1.3431-3-3-3h-3c-1.6569 0-3 1.34315-3 3v3c0 1.65685 1.3431 3 3 3z"/><path d="m17.5 22c2.4853 0 4.5-2.0147 4.5-4.5s-2.0147-4.5-4.5-4.5-4.5 2.0147-4.5 4.5 2.0147 4.5 4.5 4.5z"/></g></svg>